<svg id="visual" viewBox="0 0 960 540" width="960" height="540" xmlns="http://www.w3.org/2000/svg" xmlns:xlink="http://www.w3.org/1999/xlink" version="1.1"><path d="M0 150L14.5 149.2C29 148.3 58 146.7 87.2 141.7C116.3 136.7 145.7 128.3 174.8 129C204 129.7 233 139.3 262 145.8C291 152.3 320 155.7 349 151.2C378 146.7 407 134.3 436.2 128C465.3 121.7 494.7 121.3 523.8 125C553 128.7 582 136.3 611 143.5C640 150.7 669 157.3 698 156C727 154.7 756 145.3 785.2 146.2C814.3 147 843.7 158 872.8 155.3C902 152.7 931 136.3 945.5 128.2L960 120L960 0L945.5 0C931 0 902 0 872.8 0C843.7 0 814.3 0 785.2 0C756 0 727 0 698 0C669 0 640 0 611 0C582 0 553 0 523.8 0C494.7 0 465.3 0 436.2 0C407 0 378 0 349 0C320 0 291 0 262 0C233 0 204 0 174.8 0C145.7 0 116.3 0 87.2 0C58 0 29 0 14.5 0L0 0Z" fill="#e0d7ce"></path><path d="M0 122L14.5 123.5C29 125 58 128 87.2 126.3C116.3 124.7 145.7 118.3 174.8 112.2C204 106 233 100 262 98.2C291 96.3 320 98.7 349 101.2C378 103.7 407 106.3 436.2 110.7C465.3 115 494.7 121 523.8 123.8C553 126.7 582 126.3 611 123C640 119.7 669 113.3 698 114.3C727 115.3 756 123.7 785.2 124.5C814.3 125.3 843.7 118.7 872.8 111.3C902 104 931 96 945.5 92L960 88L960 0L945.5 0C931 0 902 0 872.8 0C843.7 0 814.3 0 785.2 0C756 0 727 0 698 0C669 0 640 0 611 0C582 0 553 0 523.8 0C494.7 0 465.3 0 436.2 0C407 0 378 0 349 0C320 0 291 0 262 0C233 0 204 0 174.8 0C145.7 0 116.3 0 87.2 0C58 0 29 0 14.5 0L0 0Z" fill="#cdb8a5"></path><path d="M0 64L14.5 63.2C29 62.3 58 60.7 87.2 62.8C116.3 65 145.7 71 174.8 76.2C204 81.3 233 85.7 262 82.5C291 79.3 320 68.7 349 65.3C378 62 407 66 436.2 68.5C465.3 71 494.7 72 523.8 71.7C553 71.3 582 69.7 611 70.5C640 71.3 669 74.7 698 73.2C727 71.7 756 65.3 785.2 65.5C814.3 65.7 843.7 72.3 872.8 74.2C902 76 931 73 945.5 71.5L960 70L960 0L945.5 0C931 0 902 0 872.8 0C843.7 0 814.3 0 785.2 0C756 0 727 0 698 0C669 0 640 0 611 0C582 0 553 0 523.8 0C494.7 0 465.3 0 436.2 0C407 0 378 0 349 0C320 0 291 0 262 0C233 0 204 0 174.8 0C145.7 0 116.3 0 87.2 0C58 0 29 0 14.5 0L0 0Z" fill="#b99a7f"></path><path d="M0 26L14.5 27C29 28 58 30 87.2 35C116.3 40 145.7 48 174.8 48.3C204 48.7 233 41.3 262 38.2C291 35 320 36 349 38C378 40 407 43 436.2 43.2C465.3 43.3 494.7 40.7 523.8 41.8C553 43 582 48 611 45.8C640 43.7 669 34.3 698 29.7C727 25 756 25 785.2 25.3C814.3 25.7 843.7 26.3 872.8 30.5C902 34.7 931 42.3 945.5 46.2L960 50L960 0L945.5 0C931 0 902 0 872.8 0C843.7 0 814.3 0 785.2 0C756 0 727 0 698 0C669 0 640 0 611 0C582 0 553 0 523.8 0C494.7 0 465.3 0 436.2 0C407 0 378 0 349 0C320 0 291 0 262 0C233 0 204 0 174.8 0C145.7 0 116.3 0 87.2 0C58 0 29 0 14.5 0L0 0Z" fill="#a67b5b"></path></svg>