<svg id="visual" viewBox="0 0 960 540" width="960" height="540" xmlns="http://www.w3.org/2000/svg" xmlns:xlink="http://www.w3.org/1999/xlink" version="1.1"><path d="M0 409L14.5 407.5C29 406 58 403 87.2 398.8C116.3 394.7 145.7 389.3 174.8 389.8C204 390.3 233 396.7 262 394.3C291 392 320 381 349 381.3C378 381.7 407 393.3 436.2 392.7C465.3 392 494.7 379 523.8 373C553 367 582 368 611 370C640 372 669 375 698 376.5C727 378 756 378 785.2 382.5C814.3 387 843.7 396 872.8 401.2C902 406.3 931 407.7 945.5 408.3L960 409L960 541L945.5 541C931 541 902 541 872.8 541C843.7 541 814.3 541 785.2 541C756 541 727 541 698 541C669 541 640 541 611 541C582 541 553 541 523.8 541C494.7 541 465.3 541 436.2 541C407 541 378 541 349 541C320 541 291 541 262 541C233 541 204 541 174.8 541C145.7 541 116.3 541 87.2 541C58 541 29 541 14.5 541L0 541Z" fill="#e0d7ce"></path><path d="M0 418L14.5 420.5C29 423 58 428 87.2 432.3C116.3 436.7 145.7 440.3 174.8 440.5C204 440.7 233 437.3 262 438.5C291 439.7 320 445.3 349 447.7C378 450 407 449 436.2 441.5C465.3 434 494.7 420 523.8 413.5C553 407 582 408 611 412.3C640 416.7 669 424.3 698 423.7C727 423 756 414 785.2 413C814.3 412 843.7 419 872.8 421.8C902 424.7 931 423.3 945.5 422.7L960 422L960 541L945.5 541C931 541 902 541 872.8 541C843.7 541 814.3 541 785.2 541C756 541 727 541 698 541C669 541 640 541 611 541C582 541 553 541 523.8 541C494.7 541 465.3 541 436.2 541C407 541 378 541 349 541C320 541 291 541 262 541C233 541 204 541 174.8 541C145.7 541 116.3 541 87.2 541C58 541 29 541 14.5 541L0 541Z" fill="#cdb8a5"></path><path d="M0 474L14.5 472.2C29 470.3 58 466.7 87.2 461.5C116.3 456.3 145.7 449.7 174.8 446.5C204 443.3 233 443.7 262 447.3C291 451 320 458 349 464.2C378 470.3 407 475.7 436.2 474.7C465.3 473.7 494.7 466.3 523.8 461.8C553 457.3 582 455.7 611 457C640 458.3 669 462.7 698 460.7C727 458.7 756 450.3 785.2 451.5C814.3 452.7 843.7 463.3 872.8 463.7C902 464 931 454 945.5 449L960 444L960 541L945.5 541C931 541 902 541 872.8 541C843.7 541 814.3 541 785.2 541C756 541 727 541 698 541C669 541 640 541 611 541C582 541 553 541 523.8 541C494.7 541 465.3 541 436.2 541C407 541 378 541 349 541C320 541 291 541 262 541C233 541 204 541 174.8 541C145.7 541 116.3 541 87.2 541C58 541 29 541 14.5 541L0 541Z" fill="#b99a7f"></path><path d="M0 490L14.5 488.3C29 486.7 58 483.3 87.2 481.5C116.3 479.7 145.7 479.3 174.8 482C204 484.7 233 490.3 262 495.3C291 500.3 320 504.7 349 504.5C378 504.3 407 499.7 436.2 495.7C465.3 491.7 494.7 488.3 523.8 486C553 483.7 582 482.3 611 485.7C640 489 669 497 698 499.3C727 501.7 756 498.3 785.2 498.3C814.3 498.3 843.7 501.7 872.8 503.3C902 505 931 505 945.5 505L960 505L960 541L945.5 541C931 541 902 541 872.8 541C843.7 541 814.3 541 785.2 541C756 541 727 541 698 541C669 541 640 541 611 541C582 541 553 541 523.8 541C494.7 541 465.3 541 436.2 541C407 541 378 541 349 541C320 541 291 541 262 541C233 541 204 541 174.8 541C145.7 541 116.3 541 87.2 541C58 541 29 541 14.5 541L0 541Z" fill="#a67b5b"></path></svg>